<svg width="300" height="93" version="1.1" xmlns="http://www.w3.org/2000/svg" desc="Created with imagetracer.js version 1.2.6" ><path fill="rgb(0,0,0)" stroke="rgb(0,0,0)" stroke-width="1" opacity="0.00392156862745098" d="M 0 0 L 56 0.5 L 0 20 L 0 0 Z " /><path fill="rgb(0,0,0)" stroke="rgb(0,0,0)" stroke-width="1" opacity="0.00392156862745098" d="M 64.5 0 L 299.5 0 L 300 0.5 L 300 46 Q 297.3 44.9 298 47.5 Q 297 51 291.5 50 Q 288.3 48.1 290 42 Q 293.8 41 295 43.5 Q 294.3 46.1 297 45 L 297 38.5 L 295 38 L 295 40 L 290 40 L 290 33 L 294.5 33 L 299 36 L 298 31 L 283.5 31 L 283 33 L 285 33.5 L 285 50 L 282 51.5 L 299 52 L 299.5 50 L 300 93 L 72 92.5 Q 81.3 89.3 87 82.5 L 96 66.5 L 96 56 L 94 55.5 L 97 53.5 L 98 45.5 L 97 44.5 L 97 35.5 L 99.5 31 L 107 29 L 106 32.5 L 106 47 L 112 47 L 112 42.5 L 111 41.5 L 111 27 L 119 25 L 117.5 22 L 66.5 2 L 64.5 0 Z M 197 30 L 191 32 L 186 39 L 187 48 Q 190 52 196 53 L 204 51 L 208 46 Q 209 39 207 36 Q 204 31 197 30 Z M 127 31 Q 126 34 129 33 L 129 50 L 127 50 L 128 52 L 137 52 Q 138 49 136 50 L 134 49 L 134 35 L 137 33 L 137 31 L 127 31 Z M 139 31 L 141 33 L 141 50 Q 138 49 139 52 L 147 52 L 144 50 L 145 38 L 158 53 L 159 52 L 159 33 L 162 32 L 165 35 L 165 49 L 164 50 Q 161 49 162 52 L 170 52 L 170 50 L 167 49 L 168 38 L 181 53 L 182 52 L 182 35 L 184 33 Q 186 34 185 31 L 176 32 L 179 33 L 180 37 L 180 44 L 169 33 L 169 31 L 153 31 Q 152 34 156 33 L 156 43 L 150 37 L 145 31 L 139 31 Z M 209 31 Q 208 34 211 33 L 220 53 L 222 51 L 228 35 L 231 33 L 231 31 L 223 31 Q 222 34 225 33 L 222 45 L 217 36 Q 216 32 219 33 L 219 31 L 209 31 Z M 239 31 L 233 35 Q 232 40 235 42 L 232 46 L 233 51 L 239 53 L 245 51 L 247 47 L 246 44 Q 240 41 246 38 L 245 33 L 239 31 Z M 248 31 Q 247 34 250 33 L 250 50 L 248 50 L 249 52 L 258 52 Q 259 49 256 50 L 256 34 L 258 33 L 258 31 L 248 31 Z M 260 31 L 262 33 L 267 48 L 271 53 L 279 35 Q 278 31 282 33 L 282 31 L 274 31 Q 273 34 276 33 L 273 42 Q 274 45 271 44 L 268 37 L 269 33 L 269 31 L 260 31 Z M 145 58 L 138 77 L 135 78 L 136 80 L 143 80 Q 144 77 141 78 Q 140 74 143 73 L 148 73 L 148 76 Q 150 77 147 79 L 148 80 L 157 80 Q 158 77 156 78 L 153 75 L 148 60 L 145 58 Z M 167 58 L 162 60 L 157 67 Q 156 73 159 76 Q 163 82 175 80 Q 178 79 177 74 L 172 78 L 167 77 L 163 73 Q 161 62 168 60 Q 174 59 175 64 Q 174 66 177 65 L 176 60 L 175 58 L 167 58 Z M 188 58 L 180 78 Q 177 77 178 80 L 185 80 L 186 79 L 184 78 Q 183 74 186 73 L 191 73 L 191 76 Q 194 77 190 79 L 191 80 L 200 80 Q 201 77 199 78 L 196 75 L 191 60 L 188 58 Z M 203 58 L 201 60 L 204 62 L 204 77 L 203 78 Q 200 77 201 80 Q 213 82 220 77 L 223 73 L 223 65 L 221 61 Q 215 57 203 58 Z M 225 58 Q 224 61 227 61 L 227 77 L 224 79 L 226 80 L 241 80 Q 243 79 242 74 Q 239 73 240 76 Q 239 78 234 77 Q 231 75 232 70 L 237 70 Q 236 73 239 72 L 239 66 L 237 65 L 236 68 L 232 67 Q 231 61 234 60 L 238 61 L 239 64 Q 243 65 241 60 L 240 58 L 225 58 Z M 244 58 L 246 62 Q 248 75 243 80 L 251 80 L 251 78 L 248 77 L 249 66 L 254 78 Q 253 80 256 79 L 261 67 L 262 67 L 262 78 L 260 78 L 261 80 L 270 80 Q 271 77 268 78 Q 266 72 267 62 L 270 60 Q 269 57 264 58 L 257 71 L 251 60 L 251 58 L 244 58 Z M 271 58 L 271 60 L 274 61 L 279 72 Q 280 77 278 78 Q 275 77 276 80 L 286 80 L 287 79 L 284 77 L 284 69 L 287 64 L 292 60 Q 290 56 284 58 L 286 62 L 283 67 L 279 60 L 281 60 L 280 58 L 271 58 Z " /><path fill="rgb(0,0,0)" stroke="rgb(0,0,0)" stroke-width="1" opacity="0.00392156862745098" d="M 0.5 22 L 20 31 L 20 55 L 32 55 Q 33.3 40 43.5 33 L 53.5 29 L 61.5 29 L 75 35 L 75 37 Q 77.7 35.9 77 38.5 L 82 45.5 L 84 55 L 88 55.5 L 84 57.5 L 82 66.5 L 71 80.5 L 68 86.5 L 67 93 L 49.5 93 Q 48.5 93 49 88.5 Q 45.4 77.6 37 71.5 Q 33.4 66.1 33 57.5 L 31.5 56 L 21.5 56 L 20 57.5 L 20 63.5 L 22 70.5 Q 26.4 80.6 34.5 87 L 45 92.5 L 0 93 L 0.5 22 Z " /><path fill="rgb(0,0,0)" stroke="rgb(0,0,0)" stroke-width="1" opacity="0.00392156862745098" d="M 194.5 33 Q 200.6 31.8 200 34.5 L 202 36.5 L 202 47.5 L 196.5 51 Q 190.6 48.4 191 39.5 L 194.5 33 Z " /><path fill="rgb(0,0,0)" stroke="rgb(0,0,0)" stroke-width="1" opacity="0.00392156862745098" d="M 238.5 33 L 241 34.5 Q 242.9 39.9 239.5 39 Q 236.5 38.5 237 34.5 L 238.5 33 Z " /><path fill="rgb(0,0,0)" stroke="rgb(0,0,0)" stroke-width="1" opacity="0.00392156862745098" d="M 237.5 44 Q 241.5 43.5 242 46.5 Q 242.5 50.5 239.5 51 L 237 50 L 236 45.5 L 237.5 44 Z " /><path fill="rgb(0,0,0)" stroke="rgb(0,0,0)" stroke-width="1" opacity="0.00392156862745098" d="M 209 60 L 216 62 L 218 70.5 L 216 76 L 209 77 L 209 60 Z " /><path fill="rgb(0,0,0)" stroke="rgb(0,0,0)" stroke-width="1" opacity="0.00392156862745098" d="M 144.5 66 L 146 70 Q 142.3 71.5 143 68.5 L 144.5 66 Z " /><path fill="rgb(0,0,0)" stroke="rgb(0,0,0)" stroke-width="1" opacity="0.00392156862745098" d="M 187.5 66 L 189 70 Q 185.3 71.5 186 68.5 L 187.5 66 Z " /><path fill="rgb(243,102,16)" stroke="rgb(243,102,16)" stroke-width="1" opacity="0.9254901960784314" d="M 56.5 0 L 63.5 0 L 113.5 20 L 119 23.5 Q 119.9 26.5 115.5 25 L 111 27 L 111 41.5 L 112 47 L 106 47 L 106 32.5 L 107 29 Q 101.2 29 98 32.5 L 97 44.5 L 98 49.5 L 95.5 55 L 88.5 56 L 84 55 L 82 45.5 L 77 37 L 75 37 Q 76.1 34.3 73.5 35 Q 67.5 28 53.5 29 Q 42.4 31.4 37 39.5 Q 32.6 46 32 55 L 20 55 L 20 31.5 L 18.5 31 L 0 21.5 Q -0.8 19.3 1.5 20 L 12.5 15 L 56.5 0 Z " /><path fill="rgb(0,0,0)" stroke="rgb(0,0,0)" stroke-width="1" opacity="0.9294117647058824" d="M 128.5 31 L 136 31.5 L 134 33.5 L 134 49.5 L 135.5 52 L 128 51.5 L 130 49.5 L 130 33.5 L 128.5 31 Z " /><path fill="rgb(0,0,0)" stroke="rgb(0,0,0)" stroke-width="1" opacity="0.9294117647058824" d="M 139.5 31 L 143.5 31 L 151 38.5 L 156.5 45 L 157 34.5 L 154.5 31 L 161 31.5 L 158 34.5 L 158 52 L 155 50.5 L 145 37 L 143 37.5 L 143 48.5 L 145.5 52 L 139 51.5 L 142 48.5 L 142 34.5 L 139.5 31 Z " /><path fill="rgb(0,0,0)" stroke="rgb(0,0,0)" stroke-width="1" opacity="0.9294117647058824" d="M 162.5 31 Q 168.8 29.8 170 33.5 L 179.5 45 L 180 33.5 L 177 31.5 L 183.5 31 L 182 33.5 L 180.5 52 L 167.5 37 L 167 49.5 L 170 51.5 L 163.5 52 L 165 49.5 L 165 33.5 L 163.5 33 L 162.5 31 Z " /><path fill="rgb(0,0,0)" stroke="rgb(0,0,0)" stroke-width="1" opacity="0.9294117647058824" d="M 193.5 31 Q 204.6 29.4 207 36.5 L 208 43.5 L 202.5 51 L 193.5 52 L 187 46.5 L 186 39.5 L 191.5 32 L 193.5 31 Z M 196 32 L 193 33 L 191 38 Q 190 44 192 48 Q 193 52 200 51 L 203 46 L 202 36 Q 201 31 196 32 Z " /><path fill="rgb(0,0,0)" stroke="rgb(0,0,0)" stroke-width="1" opacity="0.9294117647058824" d="M 210 31 L 218 31.5 Q 214.5 33 217 34.5 L 221.5 46 L 226 33.5 L 224.5 31 Q 231.4 29 230 33 Q 227.3 31.9 228 34.5 L 221 52 Q 218.3 53.1 219 50.5 L 212 33 Q 209 34 210 31 Z " /><path fill="rgb(0,0,0)" stroke="rgb(0,0,0)" stroke-width="1" opacity="0.9294117647058824" d="M 249.5 31 L 257 31.5 L 255 33.5 L 255 49.5 L 256.5 52 L 249 51.5 L 251 49.5 L 251 33.5 L 249.5 31 Z " /><path fill="rgb(0,0,0)" stroke="rgb(0,0,0)" stroke-width="1" opacity="0.9294117647058824" d="M 260.5 31 L 269 31.5 L 267 35.5 L 271.5 46 Q 275.7 41.7 276 33.5 L 275 31 L 281 31.5 L 278 34.5 L 270.5 52 Q 267.9 52.8 269 49.5 L 264 36.5 L 260.5 31 Z " /><path fill="rgb(0,0,0)" stroke="rgb(0,0,0)" stroke-width="1" opacity="0.9294117647058824" d="M 283.5 31 L 297.5 31 Q 298.5 31 298 35.5 L 297 35.5 L 295.5 33 L 290 33 L 290 41 L 297 39 L 297 44 L 295 44 L 295 42 L 290 42 L 290 49.5 L 291.5 51 Q 296.6 51.6 298 48.5 Q 297.3 46.3 299.5 47 L 299 48.5 L 297.5 52 L 283 51.5 L 286 49.5 L 286 33.5 L 284.5 32 L 283.5 31 Z " /><path fill="rgb(0,0,0)" stroke="rgb(0,0,0)" stroke-width="1" opacity="0.9294117647058824" d="M 236.5 32 Q 243 31 245 34.5 Q 245.7 39.7 242 40.5 L 246 44.5 L 246 47.5 L 243.5 51 L 236.5 52 L 233 49.5 L 232 46.5 L 233 44 L 236 42.5 L 233 36.5 L 236.5 32 Z M 237 33 L 237 38 L 241 40 Q 243 39 242 35 Q 241 32 237 33 Z M 238 43 Q 235 44 236 49 Q 236 52 241 51 Q 243 50 242 46 L 238 43 Z " /><path fill="rgb(0,0,0)" stroke="rgb(0,0,0)" stroke-width="1" opacity="0.9294117647058824" d="M 21 57 L 31.5 57 L 32 59.5 L 36 70.5 L 46 82.5 L 49 93 Q 35.4 89.9 28 79.5 L 21 65.5 L 21 57 Z " /><path fill="rgb(0,0,0)" stroke="rgb(0,0,0)" stroke-width="1" opacity="0.9294117647058824" d="M 85.5 57 L 96 57 L 96 63.5 Q 92.6 78.1 82.5 86 L 68.5 93 L 68 88.5 Q 71.6 77.6 80 71.5 L 85.5 57 Z " /><path fill="rgb(0,0,0)" stroke="rgb(0,0,0)" stroke-width="1" opacity="0.9294117647058824" d="M 168.5 58 L 176 59 L 175.5 64 L 172.5 60 Q 164.5 58.5 163 63.5 L 162 70.5 L 166.5 78 Q 175 79.5 176.5 74 L 177 75.5 L 174.5 79 L 168.5 80 Q 161.9 79.1 159 74.5 L 158 65.5 L 162.5 60 L 168.5 58 Z " /><path fill="rgb(0,0,0)" stroke="rgb(0,0,0)" stroke-width="1" opacity="0.9294117647058824" d="M 145 59 L 148 60.5 L 154 78 L 156 78.5 L 148.5 79 L 149 77.5 L 148 72 Q 142.6 70.5 141 73.5 L 140 78 L 142 78.5 L 136.5 79 L 136.5 78 Q 138.8 78.8 138 76.5 L 145 59 Z M 145 65 L 142 70 L 142 71 L 147 71 L 145 65 Z " /><path fill="rgb(0,0,0)" stroke="rgb(0,0,0)" stroke-width="1" opacity="0.9294117647058824" d="M 188 59 L 191 60.5 L 197 78 L 199 78.5 L 191.5 79 L 192 77.5 L 191 72 Q 185.6 70.5 184 73.5 L 183 78 L 185 78.5 L 179.5 79 L 179.5 78 Q 181.8 78.8 181 76.5 L 188 59 Z M 188 65 L 185 70 L 185 71 L 190 71 L 188 65 Z " /><path fill="rgb(0,0,0)" stroke="rgb(0,0,0)" stroke-width="1" opacity="0.9294117647058824" d="M 202.5 59 L 215.5 59 L 221 62.5 L 223 69.5 L 218.5 77 L 214.5 79 L 201.5 79 L 201.5 78 L 204 77.5 L 204 60 L 202.5 59 Z M 208 60 L 208 77 Q 209 79 214 78 L 218 73 L 217 64 Q 215 58 208 60 Z " /><path fill="rgb(0,0,0)" stroke="rgb(0,0,0)" stroke-width="1" opacity="0.9294117647058824" d="M 226.5 59 L 239.5 59 L 240 62.5 L 239 62.5 L 237.5 60 L 232 60 L 232 68 Q 237.1 69.3 238.5 66 L 239 71.5 L 235.5 69 L 232 69 L 232 78 Q 238.1 79.8 240 76.5 L 241.5 74 L 242 75.5 L 241 79 L 225 78.5 L 228 78 L 228 60.5 L 226.5 60 L 226.5 59 Z " /><path fill="rgb(0,0,0)" stroke="rgb(0,0,0)" stroke-width="1" opacity="0.9294117647058824" d="M 244.5 59 Q 251.5 57.5 251 60.5 L 256.5 72 L 263.5 59 L 269 59.5 L 267 60 L 267 77.5 L 268.5 78 L 268.5 79 L 261 78.5 L 263 78 L 262.5 63 L 255.5 79 L 248.5 64 L 247 75.5 L 248 78 L 250 78.5 L 243.5 79 L 243.5 78 L 246 76.5 L 247 61.5 L 244.5 59 Z " /><path fill="rgb(0,0,0)" stroke="rgb(0,0,0)" stroke-width="1" opacity="0.9294117647058824" d="M 272.5 59 L 280 59.5 L 279 62.5 L 282.5 68 Q 286.6 65.3 286 60 L 284 59.5 L 290.5 59 L 290.5 60 L 287 62.5 L 283 69.5 L 283 76.5 L 286 78.5 L 277.5 79 L 277.5 78 L 279 77.5 L 279 69.5 L 272.5 59 Z " /><path fill="rgb(0,0,0)" stroke="rgb(0,0,0)" stroke-width="1" opacity="0.3843137254901961" d="M 127.5 31 L 130 33.5 L 130 49.5 L 127 51.5 L 127 50 L 129 49.5 L 129 33 Q 125.8 34 127.5 31 Z " /><path fill="rgb(0,0,0)" stroke="rgb(0,0,0)" stroke-width="1" opacity="0.3843137254901961" d="M 136.5 31 L 137 33 L 134.5 34 L 136.5 31 Z " /><path fill="rgb(0,0,0)" stroke="rgb(0,0,0)" stroke-width="1" opacity="0.3843137254901961" d="M 138.5 31 L 139.5 33 L 138.5 31 Z " /><path fill="rgb(0,0,0)" stroke="rgb(0,0,0)" stroke-width="1" opacity="0.3843137254901961" d="M 144.5 31 L 149.5 37 L 144.5 31 Z " /><path fill="rgb(0,0,0)" stroke="rgb(0,0,0)" stroke-width="1" opacity="0.3843137254901961" d="M 153.5 31 L 154.5 33 Q 151.7 33.7 153.5 31 Z " /><path fill="rgb(0,0,0)" stroke="rgb(0,0,0)" stroke-width="1" opacity="0.3843137254901961" d="M 161.5 31 L 162.5 33 L 160 32.5 L 161.5 31 Z " /><path fill="rgb(0,0,0)" stroke="rgb(0,0,0)" stroke-width="1" opacity="0.3843137254901961" d="M 176.5 31 L 180 33.5 L 179.5 36 L 179 33 L 176.5 31 Z " /><path fill="rgb(0,0,0)" stroke="rgb(0,0,0)" stroke-width="1" opacity="0.3843137254901961" d="M 184.5 31 L 185 33 L 182.5 34 L 184.5 31 Z " /><path fill="rgb(0,0,0)" stroke="rgb(0,0,0)" stroke-width="1" opacity="0.3843137254901961" d="M 218.5 31 L 219 33 L 216.5 34 L 218.5 31 Z " /><path fill="rgb(0,0,0)" stroke="rgb(0,0,0)" stroke-width="1" opacity="0.3843137254901961" d="M 223.5 31 L 226 34.5 L 225 34.5 Q 225.7 31.9 223 33 L 223.5 31 Z " /><path fill="rgb(0,0,0)" stroke="rgb(0,0,0)" stroke-width="1" opacity="0.3843137254901961" d="M 238.5 31 L 241 31.5 L 238.5 32 L 238.5 31 Z " /><path fill="rgb(0,0,0)" stroke="rgb(0,0,0)" stroke-width="1" opacity="0.3843137254901961" d="M 248.5 31 L 251 33.5 L 251 49.5 L 248 51.5 L 248 50 L 250 49.5 L 250 33 Q 246.8 34 248.5 31 Z " /><path fill="rgb(0,0,0)" stroke="rgb(0,0,0)" stroke-width="1" opacity="0.3843137254901961" d="M 257.5 31 L 258 33 L 256 33.5 L 256 50 Q 258.7 48.9 258 51.5 L 255 49.5 L 255 33.5 L 257.5 31 Z " /><path fill="rgb(0,0,0)" stroke="rgb(0,0,0)" stroke-width="1" opacity="0.3843137254901961" d="M 259.5 31 L 260.5 33 L 259.5 31 Z " /><path fill="rgb(0,0,0)" stroke="rgb(0,0,0)" stroke-width="1" opacity="0.3843137254901961" d="M 281.5 31 L 282 33 L 280 32.5 L 281.5 31 Z " /><path fill="rgb(0,0,0)" stroke="rgb(0,0,0)" stroke-width="1" opacity="0.3843137254901961" d="M 190.5 32 L 187.5 36 L 190.5 32 Z " /><path fill="rgb(0,0,0)" stroke="rgb(0,0,0)" stroke-width="1" opacity="0.3843137254901961" d="M 195.5 32 L 199 32.5 L 195.5 33 L 195.5 32 Z " /><path fill="rgb(0,0,0)" stroke="rgb(0,0,0)" stroke-width="1" opacity="0.3843137254901961" d="M 203.5 32 L 206.5 36 L 203.5 32 Z " /><path fill="rgb(0,0,0)" stroke="rgb(0,0,0)" stroke-width="1" opacity="0.3843137254901961" d="M 235.5 32 L 234 34.5 L 233.5 36 L 233 34.5 L 235.5 32 Z " /><path fill="rgb(0,0,0)" stroke="rgb(0,0,0)" stroke-width="1" opacity="0.3843137254901961" d="M 268.5 32 L 268 33.5 L 267.5 36 L 267 33.5 L 268.5 32 Z " /><path fill="rgb(0,0,0)" stroke="rgb(0,0,0)" stroke-width="1" opacity="0.3843137254901961" d="M 283.5 32 L 286 33.5 L 286 49.5 L 284.5 51 L 282.5 52 L 283.5 50 L 285 49.5 L 285 33 L 283.5 32 Z " /><path fill="rgb(0,0,0)" stroke="rgb(0,0,0)" stroke-width="1" opacity="0.3843137254901961" d="M 240.5 33 Q 243 34 242 38.5 L 239.5 40 L 237.5 37 L 241 39 L 240.5 33 Z " /><path fill="rgb(0,0,0)" stroke="rgb(0,0,0)" stroke-width="1" opacity="0.3843137254901961" d="M 295.5 33 L 296.5 35 L 295.5 33 Z " /><path fill="rgb(0,0,0)" stroke="rgb(0,0,0)" stroke-width="1" opacity="0.3843137254901961" d="M 298.5 33 L 299 35.5 L 298 35.5 L 298.5 33 Z " /><path fill="rgb(0,0,0)" stroke="rgb(0,0,0)" stroke-width="1" opacity="0.3843137254901961" d="M 141.5 34 L 142 48.5 L 141 48.5 L 141.5 34 Z " /><path fill="rgb(0,0,0)" stroke="rgb(0,0,0)" stroke-width="1" opacity="0.3843137254901961" d="M 156.5 34 L 157 44.5 L 151 39.5 L 156 42.5 L 156.5 34 Z " /><path fill="rgb(0,0,0)" stroke="rgb(0,0,0)" stroke-width="1" opacity="0.3843137254901961" d="M 158.5 34 L 159 51.5 L 157 52.5 L 158 51.5 L 158.5 34 Z " /><path fill="rgb(0,0,0)" stroke="rgb(0,0,0)" stroke-width="1" opacity="0.3843137254901961" d="M 170.5 34 L 175.5 40 L 170.5 34 Z " /><path fill="rgb(0,0,0)" stroke="rgb(0,0,0)" stroke-width="1" opacity="0.3843137254901961" d="M 200.5 34 L 201.5 36 L 200.5 34 Z " /><path fill="rgb(0,0,0)" stroke="rgb(0,0,0)" stroke-width="1" opacity="0.3843137254901961" d="M 245.5 35 L 246 37.5 L 243 40.5 L 245.5 44 Q 238.7 40.7 245 37.5 L 245.5 35 Z " /><path fill="rgb(0,0,0)" stroke="rgb(0,0,0)" stroke-width="1" opacity="0.3843137254901961" d="M 224.5 36 L 226 40.5 L 225 40.5 L 224.5 36 Z " /><path fill="rgb(0,0,0)" stroke="rgb(0,0,0)" stroke-width="1" opacity="0.3843137254901961" d="M 143 37 L 145 37.5 L 144 38.5 L 143.5 49 L 143 37 Z " /><path fill="rgb(0,0,0)" stroke="rgb(0,0,0)" stroke-width="1" opacity="0.3843137254901961" d="M 167.5 37 L 170.5 41 L 167.5 37 Z " /><path fill="rgb(0,0,0)" stroke="rgb(0,0,0)" stroke-width="1" opacity="0.3843137254901961" d="M 181.5 37 L 182 51.5 L 180.5 53 L 177 49.5 L 181 51.5 L 181.5 37 Z " /><path fill="rgb(0,0,0)" stroke="rgb(0,0,0)" stroke-width="1" opacity="0.3843137254901961" d="M 202.5 38 L 203 45.5 L 202 45.5 L 202.5 38 Z " /><path fill="rgb(0,0,0)" stroke="rgb(0,0,0)" stroke-width="1" opacity="0.3843137254901961" d="M 233.5 39 L 236 42.5 L 234 43.5 L 235 41.5 L 233.5 39 Z " /><path fill="rgb(0,0,0)" stroke="rgb(0,0,0)" stroke-width="1" opacity="0.3843137254901961" d="M 146.5 40 L 149.5 44 L 146.5 40 Z " /><path fill="rgb(0,0,0)" stroke="rgb(0,0,0)" stroke-width="1" opacity="0.3843137254901961" d="M 290.5 40 L 293 40.5 L 290.5 41 L 290.5 40 Z " /><path fill="rgb(0,0,0)" stroke="rgb(0,0,0)" stroke-width="1" opacity="0.3843137254901961" d="M 273.5 41 L 275 44.5 L 274 44.5 L 273.5 41 Z " /><path fill="rgb(0,0,0)" stroke="rgb(0,0,0)" stroke-width="1" opacity="0.3843137254901961" d="M 222.5 42 L 224 45.5 L 223 45.5 L 222.5 42 Z " /><path fill="rgb(0,0,0)" stroke="rgb(0,0,0)" stroke-width="1" opacity="0.3843137254901961" d="M 172.5 43 L 175.5 47 L 172.5 43 Z " /><path fill="rgb(0,0,0)" stroke="rgb(0,0,0)" stroke-width="1" opacity="0.3843137254901961" d="M 178.5 43 L 179.5 45 L 178.5 43 Z " /><path fill="rgb(0,0,0)" stroke="rgb(0,0,0)" stroke-width="1" opacity="0.3843137254901961" d="M 191.5 43 L 192 45.5 L 191 45.5 L 191.5 43 Z " /><path fill="rgb(0,0,0)" stroke="rgb(0,0,0)" stroke-width="1" opacity="0.3843137254901961" d="M 220.5 43 L 222 45.5 L 220 44.5 L 220.5 43 Z " /><path fill="rgb(0,0,0)" stroke="rgb(0,0,0)" stroke-width="1" opacity="0.3843137254901961" d="M 237.5 43 L 239 43.5 L 236.5 45 L 237.5 43 Z " /><path fill="rgb(0,0,0)" stroke="rgb(0,0,0)" stroke-width="1" opacity="0.3843137254901961" d="M 207.5 44 L 208 45.5 L 203.5 51 L 206 47.5 L 207.5 44 Z " /><path fill="rgb(0,0,0)" stroke="rgb(0,0,0)" stroke-width="1" opacity="0.3843137254901961" d="M 240.5 44 L 241.5 46 L 240.5 44 Z " /><path fill="rgb(0,0,0)" stroke="rgb(0,0,0)" stroke-width="1" opacity="0.3843137254901961" d="M 271 44 L 273 44.5 L 271 45.5 L 271 44 Z " /><path fill="rgb(0,0,0)" stroke="rgb(0,0,0)" stroke-width="1" opacity="0.3843137254901961" d="M 151.5 46 L 154.5 50 L 151.5 46 Z " /><path fill="rgb(0,0,0)" stroke="rgb(0,0,0)" stroke-width="1" opacity="0.3843137254901961" d="M 187.5 47 L 190.5 51 L 187.5 47 Z " /><path fill="rgb(0,0,0)" stroke="rgb(0,0,0)" stroke-width="1" opacity="0.3843137254901961" d="M 192.5 47 L 195.5 51 L 192.5 47 Z " /><path fill="rgb(0,0,0)" stroke="rgb(0,0,0)" stroke-width="1" opacity="0.3843137254901961" d="M 201.5 48 L 199.5 51 L 198 50.5 L 201.5 48 Z " /><path fill="rgb(0,0,0)" stroke="rgb(0,0,0)" stroke-width="1" opacity="0.3843137254901961" d="M 297.5 48 L 296.5 50 L 297.5 48 Z " /><path fill="rgb(0,0,0)" stroke="rgb(0,0,0)" stroke-width="1" opacity="0.3843137254901961" d="M 134.5 49 L 137 50 L 136.5 52 L 134.5 49 Z " /><path fill="rgb(0,0,0)" stroke="rgb(0,0,0)" stroke-width="1" opacity="0.3843137254901961" d="M 164.5 49 L 162.5 52 L 162 50 L 164.5 49 Z " /><path fill="rgb(0,0,0)" stroke="rgb(0,0,0)" stroke-width="1" opacity="0.3843137254901961" d="M 167.5 49 L 170 50.5 L 168.5 51 L 167.5 49 Z " /><path fill="rgb(0,0,0)" stroke="rgb(0,0,0)" stroke-width="1" opacity="0.3843137254901961" d="M 241.5 49 L 240.5 51 L 241.5 49 Z " /><path fill="rgb(0,0,0)" stroke="rgb(0,0,0)" stroke-width="1" opacity="0.3843137254901961" d="M 290.5 49 L 295 50.5 L 291.5 51 L 290.5 49 Z " /><path fill="rgb(0,0,0)" stroke="rgb(0,0,0)" stroke-width="1" opacity="0.3843137254901961" d="M 145.5 50 L 146.5 52 L 145.5 50 Z " /><path fill="rgb(0,0,0)" stroke="rgb(0,0,0)" stroke-width="1" opacity="0.3843137254901961" d="M 218.5 50 L 220 52.5 L 218 51.5 L 218.5 50 Z " /><path fill="rgb(0,0,0)" stroke="rgb(0,0,0)" stroke-width="1" opacity="0.3843137254901961" d="M 271.5 51 L 270.5 53 L 271.5 51 Z " /><path fill="rgb(0,0,0)" stroke="rgb(0,0,0)" stroke-width="1" opacity="0.3843137254901961" d="M 195.5 52 L 199 52.5 L 195.5 53 L 195.5 52 Z " /><path fill="rgb(0,0,0)" stroke="rgb(0,0,0)" stroke-width="1" opacity="0.3843137254901961" d="M 21.5 56 L 31.5 56 L 33 57.5 L 32.5 60 L 32 57 L 21 57 L 21 63.5 L 20 63.5 Q 18.5 57.5 21.5 56 Z " /><path fill="rgb(0,0,0)" stroke="rgb(0,0,0)" stroke-width="1" opacity="0.3843137254901961" d="M 85.5 56 L 96 56.5 L 85.5 57 L 84.5 58 L 85.5 56 Z " /><path fill="rgb(0,0,0)" stroke="rgb(0,0,0)" stroke-width="1" opacity="0.3843137254901961" d="M 145.5 58 L 148 59.5 L 146.5 59 L 145.5 58 Z " /><path fill="rgb(0,0,0)" stroke="rgb(0,0,0)" stroke-width="1" opacity="0.3843137254901961" d="M 172.5 58 L 175 58.5 L 172.5 59 L 172.5 58 Z " /><path fill="rgb(0,0,0)" stroke="rgb(0,0,0)" stroke-width="1" opacity="0.3843137254901961" d="M 188.5 58 L 191 59.5 L 189.5 59 L 188.5 58 Z " /><path fill="rgb(0,0,0)" stroke="rgb(0,0,0)" stroke-width="1" opacity="0.3843137254901961" d="M 202.5 58 L 214 58.5 L 202.5 59 L 201.5 60 L 202.5 58 Z " /><path fill="rgb(0,0,0)" stroke="rgb(0,0,0)" stroke-width="1" opacity="0.3843137254901961" d="M 225 58 L 239.5 58 L 241 59.5 Q 242.9 64.9 239.5 64 L 240 62.5 L 239.5 59 L 226.5 59 L 225 59.5 L 225 58 Z " /><path fill="rgb(0,0,0)" stroke="rgb(0,0,0)" stroke-width="1" opacity="0.3843137254901961" d="M 244.5 58 L 251 58.5 L 244.5 59 L 244.5 58 Z " /><path fill="rgb(0,0,0)" stroke="rgb(0,0,0)" stroke-width="1" opacity="0.3843137254901961" d="M 263.5 58 Q 268.8 56.8 270 59.5 L 268.5 59 Q 263.8 57.7 262.5 60 L 263.5 58 Z " /><path fill="rgb(0,0,0)" stroke="rgb(0,0,0)" stroke-width="1" opacity="0.3843137254901961" d="M 271 58 L 279.5 58 L 281 59.5 L 279.5 59 L 272 59.5 L 272.5 61 L 271 58 Z " /><path fill="rgb(0,0,0)" stroke="rgb(0,0,0)" stroke-width="1" opacity="0.3843137254901961" d="M 284.5 58 Q 290.5 56.5 292 59.5 L 290.5 59 L 284.5 59 L 284.5 58 Z " /><path fill="rgb(0,0,0)" stroke="rgb(0,0,0)" stroke-width="1" opacity="0.3843137254901961" d="M 161.5 60 L 159.5 63 L 161.5 60 Z " /><path fill="rgb(0,0,0)" stroke="rgb(0,0,0)" stroke-width="1" opacity="0.3843137254901961" d="M 166.5 60 L 164 63.5 L 163.5 65 L 163 63.5 L 166.5 60 Z " /><path fill="rgb(0,0,0)" stroke="rgb(0,0,0)" stroke-width="1" opacity="0.3843137254901961" d="M 172.5 60 L 174.5 63 L 172.5 60 Z " /><path fill="rgb(0,0,0)" stroke="rgb(0,0,0)" stroke-width="1" opacity="0.3843137254901961" d="M 208.5 60 L 209 77 L 214.5 76 L 213.5 78 Q 209 79 208 76.5 L 208.5 60 Z " /><path fill="rgb(0,0,0)" stroke="rgb(0,0,0)" stroke-width="1" opacity="0.3843137254901961" d="M 212.5 60 L 215 61.5 L 213.5 61 L 212.5 60 Z " /><path fill="rgb(0,0,0)" stroke="rgb(0,0,0)" stroke-width="1" opacity="0.3843137254901961" d="M 227.5 60 L 228 78 L 226 77.5 L 227 76.5 L 227.5 60 Z " /><path fill="rgb(0,0,0)" stroke="rgb(0,0,0)" stroke-width="1" opacity="0.3843137254901961" d="M 236.5 60 L 239 61.5 L 237.5 61 L 236.5 60 Z " /><path fill="rgb(0,0,0)" stroke="rgb(0,0,0)" stroke-width="1" opacity="0.3843137254901961" d="M 245.5 60 Q 248.8 61.8 247 68.5 L 246 68.5 Q 246.6 61.8 245.5 60 Z " /><path fill="rgb(0,0,0)" stroke="rgb(0,0,0)" stroke-width="1" opacity="0.3843137254901961" d="M 289.5 60 L 287.5 63 L 289.5 60 Z " /><path fill="rgb(0,0,0)" stroke="rgb(0,0,0)" stroke-width="1" opacity="0.3843137254901961" d="M 176.5 61 L 177 65 L 175 64.5 L 176.5 61 Z " /><path fill="rgb(0,0,0)" stroke="rgb(0,0,0)" stroke-width="1" opacity="0.3843137254901961" d="M 252.5 62 L 254 65.5 L 253 65.5 L 252.5 62 Z " /><path fill="rgb(0,0,0)" stroke="rgb(0,0,0)" stroke-width="1" opacity="0.3843137254901961" d="M 221.5 63 L 223 65.5 L 222 65.5 L 221.5 63 Z " /><path fill="rgb(0,0,0)" stroke="rgb(0,0,0)" stroke-width="1" opacity="0.3843137254901961" d="M 262.5 63 L 263 77.5 L 262 77.5 L 262 66.5 L 261 65.5 L 262.5 63 Z " /><path fill="rgb(0,0,0)" stroke="rgb(0,0,0)" stroke-width="1" opacity="0.3843137254901961" d="M 95.5 64 L 96 66.5 L 95 66.5 L 95.5 64 Z " /><path fill="rgb(0,0,0)" stroke="rgb(0,0,0)" stroke-width="1" opacity="0.3843137254901961" d="M 248.5 64 L 250 66.5 L 248 65.5 L 248.5 64 Z " /><path fill="rgb(0,0,0)" stroke="rgb(0,0,0)" stroke-width="1" opacity="0.3843137254901961" d="M 275.5 64 L 278 67.5 L 276 66.5 L 275.5 64 Z " /><path fill="rgb(0,0,0)" stroke="rgb(0,0,0)" stroke-width="1" opacity="0.3843137254901961" d="M 144.5 65 L 145.5 67 L 144.5 65 Z " /><path fill="rgb(0,0,0)" stroke="rgb(0,0,0)" stroke-width="1" opacity="0.3843137254901961" d="M 187.5 65 L 188.5 67 L 187.5 65 Z " /><path fill="rgb(0,0,0)" stroke="rgb(0,0,0)" stroke-width="1" opacity="0.3843137254901961" d="M 237 65 L 239 65.5 L 236 67.5 L 237 65 Z " /><path fill="rgb(0,0,0)" stroke="rgb(0,0,0)" stroke-width="1" opacity="0.3843137254901961" d="M 259.5 65 L 261 68.5 L 260 68.5 L 259.5 65 Z " /><path fill="rgb(0,0,0)" stroke="rgb(0,0,0)" stroke-width="1" opacity="0.3843137254901961" d="M 157.5 66 L 158 71.5 L 157 71.5 L 157.5 66 Z " /><path fill="rgb(0,0,0)" stroke="rgb(0,0,0)" stroke-width="1" opacity="0.3843137254901961" d="M 281.5 66 L 286 66.5 L 282.5 68 L 281.5 66 Z " /><path fill="rgb(0,0,0)" stroke="rgb(0,0,0)" stroke-width="1" opacity="0.3843137254901961" d="M 141.5 67 L 143.5 70 L 146.5 69 L 147 71 L 142 71 L 142 69.5 L 141.5 67 Z " /><path fill="rgb(0,0,0)" stroke="rgb(0,0,0)" stroke-width="1" opacity="0.3843137254901961" d="M 162.5 67 L 163 70.5 L 162 70.5 L 162.5 67 Z " /><path fill="rgb(0,0,0)" stroke="rgb(0,0,0)" stroke-width="1" opacity="0.3843137254901961" d="M 184.5 67 L 186.5 70 L 189.5 69 L 190 71 L 185 71 L 185 69.5 L 184.5 67 Z " /><path fill="rgb(0,0,0)" stroke="rgb(0,0,0)" stroke-width="1" opacity="0.3843137254901961" d="M 232.5 69 L 236 69.5 L 232.5 70 L 232.5 69 Z " /><path fill="rgb(0,0,0)" stroke="rgb(0,0,0)" stroke-width="1" opacity="0.3843137254901961" d="M 283.5 69 L 285 77.5 L 283 76.5 L 283.5 69 Z " /><path fill="rgb(0,0,0)" stroke="rgb(0,0,0)" stroke-width="1" opacity="0.3843137254901961" d="M 222.5 70 L 223 72.5 L 221 73.5 L 222.5 70 Z " /><path fill="rgb(0,0,0)" stroke="rgb(0,0,0)" stroke-width="1" opacity="0.3843137254901961" d="M 257.5 70 L 256.5 72 L 257.5 70 Z " /><path fill="rgb(0,0,0)" stroke="rgb(0,0,0)" stroke-width="1" opacity="0.3843137254901961" d="M 79.5 71 L 73.5 78 L 79.5 71 Z " /><path fill="rgb(0,0,0)" stroke="rgb(0,0,0)" stroke-width="1" opacity="0.3843137254901961" d="M 142.5 72 L 148 72.5 L 141.5 74 L 142.5 72 Z " /><path fill="rgb(0,0,0)" stroke="rgb(0,0,0)" stroke-width="1" opacity="0.3843137254901961" d="M 185.5 72 L 191 72.5 L 184.5 74 L 185.5 72 Z " /><path fill="rgb(0,0,0)" stroke="rgb(0,0,0)" stroke-width="1" opacity="0.3843137254901961" d="M 247.5 72 L 248 75.5 L 247 75.5 L 247.5 72 Z " /><path fill="rgb(0,0,0)" stroke="rgb(0,0,0)" stroke-width="1" opacity="0.3843137254901961" d="M 38.5 73 L 43.5 79 L 38.5 73 Z " /><path fill="rgb(0,0,0)" stroke="rgb(0,0,0)" stroke-width="1" opacity="0.3843137254901961" d="M 176.5 73 L 172.5 78 L 176.5 73 Z " /><path fill="rgb(0,0,0)" stroke="rgb(0,0,0)" stroke-width="1" opacity="0.3843137254901961" d="M 24.5 74 L 25.5 76 L 24.5 74 Z " /><path fill="rgb(0,0,0)" stroke="rgb(0,0,0)" stroke-width="1" opacity="0.3843137254901961" d="M 245.5 74 L 246 76.5 L 244 77.5 L 245.5 74 Z " /><path fill="rgb(0,0,0)" stroke="rgb(0,0,0)" stroke-width="1" opacity="0.3843137254901961" d="M 91.5 75 L 90.5 77 L 91.5 75 Z " /><path fill="rgb(0,0,0)" stroke="rgb(0,0,0)" stroke-width="1" opacity="0.3843137254901961" d="M 140.5 75 L 141 77.5 L 140 77.5 L 140.5 75 Z " /><path fill="rgb(0,0,0)" stroke="rgb(0,0,0)" stroke-width="1" opacity="0.3843137254901961" d="M 159.5 75 L 161.5 78 L 159.5 75 Z " /><path fill="rgb(0,0,0)" stroke="rgb(0,0,0)" stroke-width="1" opacity="0.3843137254901961" d="M 164.5 75 L 168 77.5 L 166.5 78 L 164.5 75 Z " /><path fill="rgb(0,0,0)" stroke="rgb(0,0,0)" stroke-width="1" opacity="0.3843137254901961" d="M 183.5 75 L 184 77.5 L 183 77.5 L 183.5 75 Z " /><path fill="rgb(0,0,0)" stroke="rgb(0,0,0)" stroke-width="1" opacity="0.3843137254901961" d="M 220.5 75 L 219.5 77 L 220.5 75 Z " /><path fill="rgb(0,0,0)" stroke="rgb(0,0,0)" stroke-width="1" opacity="0.3843137254901961" d="M 267.5 75 L 268 77.5 L 267 77.5 L 267.5 75 Z " /><path fill="rgb(0,0,0)" stroke="rgb(0,0,0)" stroke-width="1" opacity="0.3843137254901961" d="M 232.5 76 Q 233.7 78.3 238.5 77 L 240 76.5 L 238.5 78 L 232 78 L 232.5 76 Z " /><path fill="rgb(0,0,0)" stroke="rgb(0,0,0)" stroke-width="1" opacity="0.3843137254901961" d="M 241.5 76 L 242 78.5 L 240.5 80 L 225.5 80 L 224.5 78 L 225.5 79 L 241 79 L 241.5 76 Z " /><path fill="rgb(0,0,0)" stroke="rgb(0,0,0)" stroke-width="1" opacity="0.3843137254901961" d="M 26.5 77 L 27.5 79 L 26.5 77 Z " /><path fill="rgb(0,0,0)" stroke="rgb(0,0,0)" stroke-width="1" opacity="0.3843137254901961" d="M 148.5 77 L 148.5 79 Q 154.8 80.7 156.5 78 L 157 80 L 147.5 80 L 147 78.5 L 148.5 77 Z " /><path fill="rgb(0,0,0)" stroke="rgb(0,0,0)" stroke-width="1" opacity="0.3843137254901961" d="M 191.5 77 L 191.5 79 Q 197.8 80.7 199.5 78 L 200 80 L 190.5 80 L 190 78.5 L 191.5 77 Z " /><path fill="rgb(0,0,0)" stroke="rgb(0,0,0)" stroke-width="1" opacity="0.3843137254901961" d="M 89.5 78 L 87.5 81 L 89.5 78 Z " /><path fill="rgb(0,0,0)" stroke="rgb(0,0,0)" stroke-width="1" opacity="0.3843137254901961" d="M 135.5 78 Q 136.8 80.3 141.5 79 L 143 78.5 L 142.5 80 L 135 80 L 135.5 78 Z " /><path fill="rgb(0,0,0)" stroke="rgb(0,0,0)" stroke-width="1" opacity="0.3843137254901961" d="M 175.5 78 L 174.5 80 L 171 79.5 L 175.5 78 Z " /><path fill="rgb(0,0,0)" stroke="rgb(0,0,0)" stroke-width="1" opacity="0.3843137254901961" d="M 178.5 78 Q 179.8 80.3 184.5 79 L 186 78.5 L 184.5 80 L 178 80 L 178.5 78 Z " /><path fill="rgb(0,0,0)" stroke="rgb(0,0,0)" stroke-width="1" opacity="0.3843137254901961" d="M 250.5 78 L 251 80 L 243 79.5 L 250.5 78 Z " /><path fill="rgb(0,0,0)" stroke="rgb(0,0,0)" stroke-width="1" opacity="0.3843137254901961" d="M 260.5 78 Q 262.2 80.7 268.5 79 L 270 78.5 L 269.5 80 L 260 80 L 260.5 78 Z " /><path fill="rgb(0,0,0)" stroke="rgb(0,0,0)" stroke-width="1" opacity="0.3843137254901961" d="M 276.5 78 L 277.5 79 L 285.5 79 L 287 78.5 L 285.5 80 L 276 80 L 276.5 78 Z " /><path fill="rgb(0,0,0)" stroke="rgb(0,0,0)" stroke-width="1" opacity="0.3843137254901961" d="M 72.5 79 L 71.5 81 L 72.5 79 Z " /><path fill="rgb(0,0,0)" stroke="rgb(0,0,0)" stroke-width="1" opacity="0.3843137254901961" d="M 165.5 79 L 168 79.5 L 165.5 80 L 165.5 79 Z " /><path fill="rgb(0,0,0)" stroke="rgb(0,0,0)" stroke-width="1" opacity="0.3843137254901961" d="M 201.5 79 L 213 79.5 L 201.5 80 L 201.5 79 Z " /><path fill="rgb(0,0,0)" stroke="rgb(0,0,0)" stroke-width="1" opacity="0.3843137254901961" d="M 28.5 80 L 34.5 87 L 28.5 80 Z " /><path fill="rgb(0,0,0)" stroke="rgb(0,0,0)" stroke-width="1" opacity="0.3843137254901961" d="M 44.5 80 L 45.5 82 L 44.5 80 Z " /><path fill="rgb(0,0,0)" stroke="rgb(0,0,0)" stroke-width="1" opacity="0.3843137254901961" d="M 86.5 82 L 84.5 85 L 86.5 82 Z " /><path fill="rgb(0,0,0)" stroke="rgb(0,0,0)" stroke-width="1" opacity="0.3843137254901961" d="M 81.5 86 L 79.5 89 L 81.5 86 Z " /><path fill="rgb(0,0,0)" stroke="rgb(0,0,0)" stroke-width="1" opacity="0.3843137254901961" d="M 36.5 87 L 37.5 89 L 36.5 87 Z " /><path fill="rgb(0,0,0)" stroke="rgb(0,0,0)" stroke-width="1" opacity="0.3843137254901961" d="M 39.5 89 L 42 90.5 L 40.5 91 L 39.5 89 Z " /><path fill="rgb(0,0,0)" stroke="rgb(0,0,0)" stroke-width="1" opacity="0.3843137254901961" d="M 69.5 92 L 72 92.5 L 69.5 93 L 69.5 92 Z " /></svg>